<svg  version="1.0" xmlns="http://www.w3.org/2000/svg"  width="900.000000pt" height="837.000000pt" viewBox="0 0 900.000000 837.000000"  preserveAspectRatio="xMidYMid meet">  <g transform="translate(0.000000,837.000000) scale(0.100000,-0.100000)" fill="rgba(255, 255, 255, 0.8)" stroke="none"> <path d="M1876 6774 c-11 -29 -7 -3924 4 -3945 10 -18 23 -19 215 -19 184 0 205 2 214 18 9 18 14 3912 5 3945 -5 15 -24 17 -219 17 -185 0 -214 -2 -219 -16z"/> <path d="M6810 6765 c-25 -13 -85 -44 -135 -68 -49 -24 -117 -59 -150 -77 -33 -18 -75 -41 -94 -51 -18 -10 -41 -25 -50 -33 -9 -8 -30 -21 -46 -28 -34 -15 -122 -67 -175 -103 -82 -56 -105 -73 -180 -132 -43 -35 -82 -63 -86 -63 -4 0 -17 -10 -30 -22 -13 -13 -37 -34 -55 -48 -17 -14 -43 -36 -58 -50 -14 -13 -51 -45 -81 -71 -180 -150 -512 -506 -650 -696 -19 -26 -55 -73 -80 -103 -25 -30 -63 -81 -85 -112 -22 -32 -57 -81 -78 -110 -20 -29 -57 -82 -80 -118 -24 -36 -52 -78 -63 -94 -10 -16 -30 -45 -44 -66 -14 -20 -37 -55 -52 -78 -30 -44 -77 -82 -103 -82 -29 0 -98 47 -156 107 -47 48 -313 358 -392 456 -12 15 -30 37 -40 48 -67 75 -235 270 -301 349 -44 52 -94 109 -110 126 -27 27 -127 135 -231 248 -74 81 -140 158 -149 173 -4 8 -34 41 -65 72 -83 83 -366 382 -388 410 -13 16 -26 22 -37 18 -15 -6 -17 -35 -14 -355 l3 -348 235 -249 c129 -137 249 -264 265 -283 17 -19 58 -63 92 -99 69 -73 68 -72 126 -130 178 -179 459 -474 649 -683 161 -176 236 -272 278 -352 48 -93 53 -147 17 -199 -12 -19 -44 -77 -71 -129 -26 -52 -60 -116 -74 -141 -15 -26 -38 -67 -51 -90 -13 -24 -32 -55 -43 -69 -36 -47 -88 -130 -88 -139 0 -5 -11 -18 -25 -29 -14 -11 -25 -25 -25 -31 0 -7 -10 -22 -23 -34 -12 -13 -31 -36 -41 -52 -24 -37 -65 -83 -191 -215 -88 -92 -211 -200 -228 -200 -7 0 -24 -12 -38 -27 -14 -16 -41 -38 -60 -51 -19 -12 -50 -34 -69 -47 -19 -14 -54 -34 -77 -44 -24 -11 -43 -24 -43 -30 0 -5 -19 -16 -42 -26 -23 -9 -55 -27 -71 -41 -16 -13 -36 -24 -45 -24 -10 0 -33 -11 -53 -24 -19 -13 -54 -29 -76 -35 -22 -6 -46 -18 -53 -26 -7 -8 -33 -21 -59 -29 -25 -7 -62 -23 -81 -34 -19 -11 -53 -24 -75 -28 -22 -4 -60 -18 -84 -31 -24 -12 -56 -23 -70 -23 -14 0 -50 -11 -80 -25 -29 -14 -72 -28 -95 -31 -22 -4 -66 -17 -96 -29 -30 -13 -83 -26 -117 -30 -102 -11 -98 0 -101 -255 -3 -167 0 -225 9 -236 17 -20 82 -11 156 21 29 13 77 28 106 34 30 5 69 19 88 30 19 11 52 23 74 27 22 4 56 15 76 25 20 10 58 23 85 30 27 6 65 22 84 34 19 13 46 26 60 29 24 7 143 60 205 93 11 6 36 18 55 27 19 10 62 32 95 51 33 19 79 43 102 55 23 11 45 25 48 30 4 6 23 19 43 31 20 11 53 31 72 44 19 13 50 35 68 47 160 111 430 353 540 486 117 142 172 214 229 302 23 36 51 79 63 95 20 28 60 92 105 167 11 18 41 72 66 119 26 48 56 101 68 117 11 17 21 37 21 45 0 8 11 30 24 50 14 20 34 55 45 79 12 24 27 54 35 68 8 14 28 57 46 95 17 39 38 81 45 95 20 37 91 180 109 220 9 19 24 49 33 65 9 17 22 41 30 55 8 14 25 48 39 75 13 28 40 75 59 105 19 30 44 73 55 95 33 62 73 129 98 160 12 15 22 33 22 40 0 6 9 20 21 31 12 10 30 35 40 54 30 54 59 93 139 191 17 20 30 42 30 48 0 6 26 40 58 74 32 34 92 98 132 142 81 87 110 117 185 185 123 112 218 190 231 190 7 0 17 8 22 17 11 18 69 62 122 92 19 10 44 28 54 40 11 12 25 21 31 21 7 0 28 12 48 28 20 15 57 40 84 55 26 16 62 37 78 48 51 32 58 36 145 79 47 23 92 48 100 55 8 7 33 18 55 25 22 7 51 21 64 31 13 11 31 19 41 19 9 0 37 11 61 23 24 13 61 29 82 36 20 7 41 21 47 30 7 14 17 452 11 509 -2 19 -52 13 -101 -13z"/> <path d="M6471 5621 c-13 -8 -15 -219 -16 -1538 -1 -840 -3 -1536 -4 -1546 -2 -29 -56 -77 -86 -77 -40 0 -93 43 -180 145 -60 69 -89 102 -159 175 -28 30 -85 93 -125 140 -71 84 -81 96 -100 115 -11 11 -123 132 -161 174 -14 15 -75 81 -136 147 -61 65 -155 171 -209 234 -55 63 -108 124 -120 136 -11 12 -60 65 -110 119 -133 145 -133 145 -149 145 -18 0 -36 -30 -36 -58 0 -10 -11 -39 -24 -64 -13 -25 -27 -60 -31 -78 -4 -18 -18 -53 -31 -78 -13 -25 -24 -53 -24 -62 0 -9 -11 -38 -25 -65 -25 -46 -25 -48 -9 -74 10 -14 43 -53 74 -86 30 -33 74 -82 95 -110 22 -27 53 -64 70 -82 16 -17 41 -45 55 -61 23 -28 64 -74 195 -220 28 -31 79 -89 115 -129 36 -40 90 -102 120 -137 30 -35 82 -93 115 -128 33 -35 85 -92 115 -127 57 -66 107 -123 150 -171 14 -15 50 -56 80 -91 30 -35 69 -77 85 -95 61 -64 265 -292 334 -374 39 -46 84 -91 98 -99 36 -19 441 -17 460 2 19 18 19 4007 1 4019 -18 11 -410 10 -427 -1z"/> </g> </svg> 