<svg  version="1.0" xmlns="http://www.w3.org/2000/svg"  width="889.000000pt" height="825.000000pt" viewBox="0 0 889.000000 825.000000"  preserveAspectRatio="xMidYMid meet">  <g transform="translate(0.000000,825.000000) scale(0.050000,-0.050000)" fill="#007070" stroke="none"> <path d="M1740 15970 l0 -250 100 0 100 0 0 250 0 250 -100 0 -100 0 0 -250z"/> <path d="M925 15816 l-64 -64 164 -171 c200 -208 183 -200 267 -119 l69 67 -175 175 c-203 204 -179 194 -261 112z"/> <path d="M2486 15702 l-164 -176 69 -67 70 -68 174 174 174 174 -69 71 c-85 88 -62 98 -254 -108z"/> <path d="M1634 15472 c-620 -231 -463 -1172 196 -1172 628 0 840 815 295 1134 -112 65 -365 85 -491 38z"/> <path d="M520 14920 l0 -100 250 0 250 0 0 100 0 100 -250 0 -250 0 0 -100z"/> <path d="M2654 15007 c-8 -7 -14 -53 -14 -100 l0 -87 261 0 261 0 -6 95 -6 95 -241 6 c-133 3 -247 -1 -255 -9z"/> <path d="M1045 14255 c-187 -188 -187 -187 -105 -265 l61 -58 179 178 179 179 -63 65 c-81 84 -61 92 -251 -99z"/> <path d="M2383 14354 l-64 -67 162 -173 c181 -194 189 -197 265 -118 74 77 75 74 -111 259 -193 192 -170 183 -252 99z"/> <path d="M5272 13307 c-482 -535 -879 -983 -884 -996 -8 -20 477 -489 786 -759 204 -178 209 -170 -544 -871 -662 -616 -670 -625 -670 -719 0 -73 5 -77 640 -516 303 -209 754 -520 1003 -693 l454 -313 1371 0 1372 0 0 1605 0 1605 -1315 1315 c-723 723 -1320 1315 -1327 1315 -6 0 -405 -438 -886 -973z"/> <path d="M1740 13841 l0 -261 101 0 100 0 -5 255 -6 255 -95 6 -95 6 0 -261z"/> <path d="M1600 11942 l-1470 -1094 -5 -1204 -5 -1204 2180 0 c1199 0 2180 4 2180 10 0 5 -200 233 -444 505 -245 272 -529 589 -631 703 -284 316 -317 246 445 918 982 865 930 816 930 897 0 54 -16 87 -65 134 -96 94 -1616 1422 -1632 1426 -7 2 -674 -489 -1483 -1091z"/> </g> </svg> 