<?xml version="1.0" encoding="utf-8"?>
<svg width="100%" height="100%" viewBox="0 0 512 512" xmlns="http://www.w3.org/2000/svg">
  <path fill="#008080" d="M16,64V456H496V64ZM464,424H48V96H464Z"/>
  <rect width="88" height="32" x="88" y="136" fill="#008080"/>
  <rect width="88" height="32" x="88" y="208" fill="#008080"/>
  <rect width="88" height="32" x="88" y="280" fill="#008080"/>
  <rect width="88" height="32" x="88" y="352" fill="#008080"/>
  <rect width="136" height="32" x="288" y="136" fill="#008080"/>
  <rect width="136" height="32" x="288" y="208" fill="#008080"/>
  <rect width="136" height="32" x="288" y="280" fill="#008080"/>
  <rect width="136" height="32" x="288" y="352" fill="#008080"/>
  <rect width="32" height="32" x="216" y="136" fill="#008080"/>
  <rect width="32" height="32" x="216" y="208" fill="#008080"/>
  <rect width="32" height="32" x="216" y="280" fill="#008080"/>
  <rect width="32" height="32" x="216" y="352" fill="#008080"/>
</svg>
