<?xml version="1.0" encoding="UTF-8"?>
<svg width="100%" height="100%" viewBox="0 0 100 100" version="1.1" xmlns="http://www.w3.org/2000/svg">
    <circle cx="50" cy="50" r="45" fill="#61dafb"/>
    <path d="M50 25C37.297 25 27 35.297 27 48c0 10.137 6.632 18.737 15.833 21.667C43.833 69.667 45 68.333 45 67.5V62.5c-6.667-1.333-8.333-5-8.333-5-1.667-3.333-3.333-4.167-3.333-4.167-2.5-1.667.167-1.667.167-1.667 2.833.167 4.167 2.833 4.167 2.833 2.5 4.167 6.667 3.333 8.333 2.5.167-1.667 1-3.333 1.667-4.167-5.833-.833-11.667-2.833-11.667-12.5 0-2.833.833-5 2.5-6.667-.167-.833-1.167-3.333.167-6.667 0 0 2.167-.667 6.667 2.5 2-0.5 4-0.833 6-0.833s4 0.333 6 0.833c4.5-3.167 6.667-2.5 6.667-2.5 1.333 3.333.333 5.833.167 6.667 1.667 1.667 2.5 3.833 2.5 6.667 0 9.667-5.833 11.667-11.667 12.5.833.833 1.667 2.5 1.667 5v7.5c0 .833 1.167 2.167 2.167 1.667C66.368 66.737 73 58.137 73 48 73 35.297 62.703 25 50 25z" fill="white"/>
</svg>
